<svg width="201" height="1649" viewBox="0 0 201 1649" fill="none" xmlns="http://www.w3.org/2000/svg">
<mask id="mask0_473_1643" style="mask-type:alpha" maskUnits="userSpaceOnUse" x="0" y="0" width="201" height="1649">
<g clip-path="url(#clip0_473_1643)">
<path d="M149.42 366.848L152.55 368.995L153.76 368.524C154.24 370.137 153.56 427.135 153.56 434.052L153.5 551.574C153.6 563.552 154.76 575.45 154.9 587.392C155.27 617.71 154.87 648.165 154.58 678.489C154.49 687.725 152.91 763.227 154.42 765.624C156 768.131 158.35 769.53 159.37 772.498C161.19 777.756 160.15 796.193 159.64 802.383C159.46 804.597 159.22 806.396 157.82 808.165C156.23 809.001 152.87 810.147 152.86 812.361C152.71 842.462 153.27 872.535 153.84 902.617C153.86 903.948 157.37 905.81 158.3 906.339C161.43 913.079 159.76 957.821 158.5 967.531C158.21 969.76 153.91 976.194 153.91 979.673C153.94 1025.23 153.96 1070.75 153.49 1116.3C153.4 1124.37 153.27 1132.52 155.06 1140.42L153.69 1140.7C161.58 1151.3 164.25 1168.32 168.29 1180.95C168.66 1184.4 167.41 1188.89 167.51 1192.21C168.54 1230.08 169.18 1268.81 168.45 1306.7C167.5 1355.38 169.7 1404.44 168.4 1453.06C167.31 1493.92 167.11 1534.34 167.45 1575.25C167.53 1583.96 169.05 1602.52 165.72 1609.6C162.84 1611.26 161.28 1612.57 158.16 1612.28C152.34 1617.61 159.56 1617.21 152.88 1625.47H151.75C151.82 1624.38 151.89 1623.29 151.94 1622.2C152.18 1617.11 152.56 1615.32 149.52 1611.89C148.34 1612.11 120.97 1616.81 123.06 1615.56C125.56 1617.34 124.69 1616.69 128.22 1617.02C125.03 1628.86 135.4 1641.8 132.87 1646.73L120.95 1647.18L120.93 1645.28L123.39 1644.37C124.41 1642.08 125.99 1639.74 124.91 1637.27C119.34 1624.55 86.7496 1623.11 80.4096 1634.18C80.4596 1637.78 81.1897 1639.13 82.3997 1642.46L79.1596 1640.99L78.5197 1642.85C80.0097 1644.66 79.3597 1644.15 81.3297 1645.34L80.3796 1645.67C77.5316 1646.72 76.6706 1646.85 74.4016 1648.97C68.2466 1649.22 62.4026 1649.02 56.2516 1648.87L56.5746 1653.41C56.8336 1656.71 56.9367 1656.98 55.7357 1660.22C52.0237 1662.83 47.5756 1661.23 42.6766 1660.99L47.9816 1775.54C48.3646 1783.81 50.5637 1819.84 49.5557 1826.41C47.5037 1827.61 46.9786 1830.01 46.4556 1832.2C43.4876 1832.65 43.6906 1832.57 40.9226 1831.29C33.6926 1821.62 23.3016 1829.49 12.6926 1825.64C10.5146 1809.18 10.7876 1788.44 9.59161 1771.52C6.73161 1731.06 6.32663 1689.43 3.47363 1649.08C9.11463 1649.15 25.1176 1650.06 29.1726 1647.6C32.1316 1640.78 30.4136 1636.91 28.9216 1629.53C26.4116 1628.9 25.7837 1628.78 23.2097 1628.58C19.1407 1632.15 20.6117 1633.51 16.1807 1637.79C19.0017 1627.19 19.9686 1623.92 20.8466 1612.95C15.9096 1612.6 13.1966 1613.05 9.64661 1610.08C8.28861 1604.97 8.80963 1582.89 8.80963 1576.53L8.83264 1504.6L8.48163 1348.81C7.93763 1294.7 7.24965 1240.48 8.57965 1186.34C8.75865 1179.03 20.6026 1141.22 26.8066 1139.29C35.1426 1141.88 31.4066 1148.43 38.4276 1153.11C42.3046 1145.08 38.8216 1146.8 47.6876 1138.93C48.9476 1084.79 46.6406 1028.95 49.6346 974.681C49.7716 972.188 47.6816 969.867 46.3306 967.608C46.2026 949.993 45.7757 927.774 46.4937 909.776C46.4987 909.633 49.4867 905.178 49.8557 904.634C50.3057 898.752 50.2926 893.001 50.2846 887.078C50.2506 863.194 50.4006 839.324 51.2516 815.469C50.8876 812.725 48.6926 809.886 47.3446 807.733C41.4666 798.345 44.5577 779.491 44.5197 768.516C44.5167 767.575 49.8056 764.78 49.5286 760.938C45.5586 705.781 48.7107 649.93 47.9727 594.61C47.8337 584.114 49.5026 573.177 49.7856 562.591C50.1676 548.306 49.7807 533.921 50.5297 519.671C54.1587 519.33 60.0686 518.276 62.9886 520.263C72.8016 523.664 81.1996 520.625 92.3596 521.451L94.3896 520.944L93.6497 519.744L85.4597 518.315C88.3797 517.76 88.8296 518.345 91.1796 516.189L90.4096 514.922C92.2596 514.277 112.16 514.374 113.73 515.698L112.8 516.204L118.12 516.642L117.85 518.707L119.8 517.376C115.44 521.079 108.21 517.991 107.55 520.256L110.65 521.401C116.45 520.968 134.65 521.542 137.88 520.84C138.94 520.185 141.51 519.28 142.69 518.871L143.98 518.439C149.45 506.93 143.37 401.413 145.19 381.316C145.49 377.974 143.88 370.564 144.73 367.381L149.42 366.848ZM65.0576 1642.81C68.5786 1630.83 75.4397 1615.82 56.7567 1614.75C53.9017 1621.68 56.9696 1638.42 61.8336 1643.33C64.2906 1643.44 63.4576 1643.89 65.0576 1642.81Z" fill="#7A7A7A"/>
<path d="M37.7279 1631.78L38.4919 1630.63C39.5839 1628.99 40.9418 1626.96 41.1908 1625.11C43.6078 1607.17 38.4689 1613.21 35.5299 1608.68C34.8229 1576.74 35.4638 1543.38 35.3518 1511.3L34.7679 1341.19L34.3778 1238.64C34.3748 1215.02 32.0968 1187.81 40.6748 1165.36C43.7458 1157.32 45.7129 1148.59 49.2049 1140.92L51.3988 1141.49C55.5068 1145.61 56.8568 1162.84 59.6878 1168.6C67.0868 1183.7 64.4838 1202.74 64.4998 1220.09L64.5128 1296.81L64.5938 1542.82C64.6458 1553.67 63.3479 1605.38 65.5799 1611.81L67.3589 1612.24C70.8509 1607.4 69.2078 1580.54 69.1928 1572.93L69.1999 1509.93L69.2129 1306.97C72.3759 1307.07 72.8248 1307.18 76.0218 1306.56C77.7828 1300.56 79.7399 1304.15 84.4398 1301.64L83.8999 1300.59C80.7599 1299.87 81.6499 1300.58 79.5799 1298.62C78.9899 1266.52 78.9198 1228.87 79.6698 1196.86C82.5198 1194.77 82.8698 1195.5 87.1198 1195.29C92.7898 1195.42 95.4798 1195.26 101.12 1194.61L102.28 1194.6C108.22 1195.37 110.67 1195.42 116.5 1195.34C120.8 1195.42 120.69 1194.65 123.21 1196.83C124.08 1206.88 124.47 1293.38 122.79 1299.49C120.72 1301.17 120.86 1301.05 118.21 1301.24C122.28 1303 123.95 1301.4 127.15 1304.01C126.07 1305.81 126.68 1305.01 125.36 1306.45L131.53 1307.2C130.01 1308.44 130.94 1307.91 128.61 1308.54C133.48 1341.08 125.72 1389.31 133.39 1417.35L134.19 1417.22C134.94 1432.11 134.33 1452.51 134.33 1467.74L134.35 1562.29C134.35 1571.21 133.29 1606.36 135.5 1612.31L136.92 1612.24C137.26 1611.76 137.59 1611.28 137.93 1610.81C138.15 1514.36 138.06 1360.27 137.9 1268.4L137.83 1210C137.84 1203.42 137.49 1183.95 138.93 1177.88C140.84 1169.85 146.79 1153.18 149.47 1144.77C150.05 1142.96 152.14 1141.72 153.69 1140.7C161.58 1151.3 164.25 1168.32 168.29 1180.95C168.66 1184.4 167.41 1188.89 167.51 1192.21C168.54 1230.08 169.18 1268.81 168.45 1306.7C167.5 1355.38 169.7 1404.44 168.4 1453.06C167.31 1493.92 167.11 1534.34 167.45 1575.25C167.53 1583.96 169.05 1602.52 165.72 1609.6C162.84 1611.26 161.28 1612.57 158.16 1612.28C152.34 1617.61 159.56 1617.2 152.88 1625.46H151.75C151.82 1624.38 151.89 1623.29 151.94 1622.2C152.18 1617.11 152.56 1615.32 149.52 1611.88C148.34 1612.11 120.97 1616.81 123.06 1615.56C125.56 1617.34 124.69 1616.69 128.22 1617.02C125.03 1628.85 135.4 1641.8 132.87 1646.73L120.95 1647.18L120.93 1645.28L123.39 1644.36C124.41 1642.08 125.99 1639.74 124.91 1637.27C119.34 1624.55 86.7498 1623.11 80.4098 1634.17C80.4598 1637.78 81.1899 1639.13 82.3999 1642.45L79.1598 1640.98L78.5199 1642.85C80.0099 1644.66 79.3599 1644.15 81.3299 1645.33L80.3799 1645.67C77.5319 1646.72 76.6708 1646.85 74.4018 1648.97C68.2468 1649.21 62.4029 1649.02 56.2519 1648.87C57.5199 1639.01 50.1698 1630.13 53.1988 1611.76C51.3218 1612.94 51.8698 1613.73 48.9218 1614.79L44.5329 1610.89C43.5119 1621.14 45.6079 1624.8 39.3019 1633.2L38.1679 1632.97L37.7279 1631.78ZM65.0578 1642.81C68.5788 1630.82 75.4399 1615.82 56.7569 1614.75C53.9019 1621.68 56.9698 1638.42 61.8338 1643.33C64.2908 1643.43 63.4578 1643.88 65.0578 1642.81Z" fill="#C5C5C5"/>
<path d="M134.19 1417.22C134.94 1432.11 134.33 1452.51 134.33 1467.74L134.35 1562.29C134.35 1571.21 133.29 1606.36 135.5 1612.31L136.921 1612.24C137.261 1611.76 137.591 1611.28 137.931 1610.81C138.151 1514.36 138.061 1360.27 137.901 1268.4L137.83 1210C137.84 1203.42 137.491 1183.95 138.931 1177.88C140.841 1169.85 146.79 1153.18 149.47 1144.77C150.05 1142.96 152.14 1141.72 153.69 1140.7C161.58 1151.3 164.251 1168.32 168.291 1180.95C168.661 1184.4 167.41 1188.89 167.51 1192.21C168.54 1230.08 169.18 1268.81 168.45 1306.7C167.5 1355.38 169.701 1404.44 168.401 1453.06C167.311 1493.92 167.11 1534.34 167.45 1575.25C167.53 1583.96 169.05 1602.52 165.72 1609.6C162.84 1611.26 161.281 1612.57 158.161 1612.28C152.341 1617.61 159.56 1617.2 152.88 1625.46H151.75C151.82 1624.38 151.89 1623.29 151.94 1622.2C152.18 1617.11 152.561 1615.32 149.521 1611.88C148.341 1612.11 120.971 1616.81 123.061 1615.56C125.561 1617.34 124.69 1616.69 128.22 1617.02C125.03 1628.85 135.4 1641.8 132.87 1646.73L120.95 1647.18L120.931 1645.28L123.39 1644.36C124.41 1642.08 125.991 1639.74 124.911 1637.27C119.341 1624.55 86.7505 1623.11 80.4104 1634.17C80.4604 1637.78 81.1905 1639.13 82.4005 1642.45L79.1604 1640.98L78.5205 1642.85C80.0105 1644.66 79.3605 1644.15 81.3305 1645.33L80.3805 1645.67C77.5325 1646.72 76.6715 1646.85 74.4025 1648.97C68.2475 1649.21 62.4035 1649.02 56.2525 1648.87C57.5205 1639.01 50.1705 1630.13 53.1995 1611.76C60.0155 1611.71 63.7035 1613.37 70.4125 1614.23C76.6065 1615.03 82.3105 1614.91 88.5305 1614.8C89.3405 1597.06 88.7005 1576.64 88.8705 1558.64C89.6005 1517.81 89.8004 1476.98 89.4704 1436.15C89.4604 1413.4 89.0804 1389.52 89.9104 1366.71C90.1204 1360.7 95.4205 1336.21 99.0905 1330.74C99.8705 1329.56 100.38 1329.99 101.98 1330.05C117.56 1343.78 113.5 1409.71 113.48 1430.64L114.051 1554.39C114.091 1567.57 113.2 1597.94 114.58 1609.78L115.62 1610.27C122.53 1606.9 123.031 1609.5 128.791 1606.43C133.861 1601 132.49 1559.5 132.5 1549.97L132.45 1454.47C132.44 1446.66 131.84 1423.43 133.39 1417.35L134.19 1417.22ZM65.0585 1642.81C68.5795 1630.82 75.4405 1615.82 56.7575 1614.75C53.9025 1621.68 56.9705 1638.42 61.8345 1643.33C64.2915 1643.43 63.4585 1643.88 65.0585 1642.81Z" fill="#8B8B8B"/>
<path d="M147.51 1482.07H159.49C159.51 1495.97 160.69 1607.34 158.16 1612.29C152.34 1617.62 159.56 1617.21 152.88 1625.47H151.75C151.82 1624.38 151.89 1623.29 151.94 1622.2C152.18 1617.11 152.56 1615.32 149.52 1611.89C146.54 1601.05 147.44 1569.57 147.44 1556.69L147.51 1482.07Z" fill="#E8E8E8"/>
<path d="M100.38 1331.67L102.81 1333.72C107.83 1357.93 107.75 1381.51 107.58 1406.08C107.06 1478.69 106.39 1551.3 106.49 1623.9C101.37 1623.68 101.16 1624.5 97.4504 1622.12C96.6704 1620.68 96.2404 1619.83 96.2604 1618.1C97.0804 1533.44 96.0904 1448.71 96.6104 1364.04C96.6304 1359.25 97.4004 1353.45 98.2504 1348.74C99.2804 1342.95 99.4204 1337.45 100.38 1331.67Z" fill="#E8E8E8"/>
<path d="M147.51 1330.95H160.49C160.67 1348.27 159.7 1363.92 159.54 1380.97L159.49 1480.29C154.62 1481.3 152.23 1481.96 148.11 1479.25C145.88 1472.1 147.5 1348.08 147.51 1330.95Z" fill="#E8E8E8"/>
<path d="M149.511 1176.62C152.201 1176.67 153.761 1176.82 156.391 1177.12C161.351 1181.48 158.861 1185.64 156.361 1190.68L155.751 1191.89C156.551 1193.71 156.131 1192.88 158.301 1194.2C159.351 1202.52 158.301 1221.36 158.581 1230.8C159.541 1263.36 157.431 1297.27 157.491 1329.49C153.011 1329.8 153.16 1330.54 149.94 1328.67C149.25 1323.59 149.3 1317.58 149.45 1312.41C150.61 1273.18 146.861 1233.9 149.411 1194.75C149.821 1188.53 149.661 1182.79 149.511 1176.62Z" fill="#E8E8E8"/>
<path d="M56.7569 1614.75C75.4399 1615.82 68.5789 1630.83 65.0579 1642.81C63.4579 1643.88 64.2909 1643.44 61.8339 1643.33C56.9699 1638.42 53.9019 1621.68 56.7569 1614.75Z" fill="#E8E8E8" fill-opacity="0.01"/>
<path d="M101.12 1194.61L102.28 1194.6C108.22 1195.37 110.67 1195.42 116.5 1195.34C116.27 1218.51 119 1245.01 117.84 1267.23L117.09 1261.76C116.54 1269.43 117.45 1296.45 116.66 1299.37C111.07 1301.84 91.0597 1302.22 86.0197 1298.92C86.3397 1287.58 86.5797 1278.56 85.8997 1267.19L85.3496 1273.35C84.3096 1270.48 86.2496 1201.54 87.1196 1195.3C92.7896 1195.42 95.4796 1195.27 101.12 1194.61Z" fill="#E8E8E8"/>
<path d="M44.533 1610.89C43.067 1596.74 43.8659 1562.17 43.7659 1546.81C43.6729 1532.47 42.6349 1496.2 43.9829 1484.26C46.8519 1481.9 51.1329 1482.49 54.4069 1483.57C56.3089 1491 54.9449 1607.93 53.1989 1611.76C51.3219 1612.94 51.8699 1613.73 48.9219 1614.79L44.533 1610.89Z" fill="#E8E8E8"/>
<path d="M43.2334 1331.71C47.9754 1331.3 48.8734 1331.19 53.5234 1331.8C53.9924 1332.26 54.4614 1332.72 54.9304 1333.18C56.9134 1368.69 53.2624 1448.99 55.1204 1479.14L55.1944 1480.22C51.6284 1480.45 47.0974 1481.08 44.2844 1478.99C43.2614 1474.26 43.7014 1468.45 43.6694 1463.55C43.3784 1419.62 43.8394 1375.64 43.2334 1331.71Z" fill="#E8E8E8"/>
<path d="M44.6566 1176.72C48.0116 1176.66 49.0436 1176.74 52.3926 1177.15C57.4036 1181.42 54.8016 1185.73 52.3816 1190.74L51.7746 1191.98L52.2426 1193.04C54.1226 1194.02 53.3146 1193.3 54.5606 1195.29L54.5446 1286.41C54.5386 1295.21 55.1186 1322.41 53.5656 1329.22C48.6116 1329.46 48.8586 1329.84 45.9776 1327.24C44.6836 1320.17 45.1946 1301.59 45.4916 1293.43C46.8906 1254.87 43.9306 1214.99 44.6566 1176.72Z" fill="#E8E8E8"/>
<path d="M75.7136 1307.73L76.6236 1308.69C74.7936 1311.22 75.3076 1340.55 75.2646 1345.72C79.5596 1341.62 73.8026 1338.08 77.6896 1331.67C78.5096 1335.81 76.6706 1352.78 76.6266 1358.63C76.5186 1373.12 76.5016 1387.65 76.5096 1402.16C76.4436 1406.12 76.7646 1410.06 75.1336 1413.56C72.5786 1412.11 72.5666 1411.71 70.5326 1409.52C68.4586 1400.25 69.5296 1324.75 70.2926 1312.05C72.4076 1308.74 71.7886 1309.75 75.7136 1307.73Z" fill="#B2B2B2"/>
<path d="M90.4104 514.922C92.2604 514.278 112.16 514.375 113.73 515.698L112.8 516.204L118.12 516.642L117.85 518.707L119.8 517.377C115.44 521.079 108.21 517.991 107.55 520.256L110.65 521.402C116.45 520.969 134.65 521.543 137.88 520.84C138.93 520.966 141.82 520.841 142.08 521.966C144.61 533.08 142.08 545.815 142.86 557.772C146.86 618.768 144.31 680.183 144.72 741.311C144.77 748.976 142.97 754.283 142.22 761.417L140.83 762.469C137.76 761.728 138.18 761.995 134.92 762.32C127.92 753.022 121.09 752.831 112.32 758.901C111.57 766.454 110.87 802.594 113.35 808.397L116.32 810.81C117.21 820.918 116.52 831.929 116.17 842.139C117.73 840.414 117.74 840.425 118.8 838.345C118.63 855.671 116.87 872.906 116.3 890.083C115.68 908.32 117.06 926.741 116.16 945.14C117.9 943.263 117.78 943.365 118.74 940.95C119.47 949.25 117.49 961.605 117.49 971.522C112.1 971.57 107.49 971.617 102.08 972.075C99.1704 967.6 103.39 965.411 103.12 961.628C101.68 941.636 104.06 919.226 102.15 899.523C99.9104 901.733 97.7004 903.957 95.4904 906.196L95.5004 964.333L92.7304 964.784C92.8504 946.24 93.1504 927.351 92.7504 908.81C92.6804 905.312 92.3004 904.139 90.1404 902.149L86.0804 902.594C84.5804 900.497 87.4204 884.782 86.9404 879.981C85.3404 863.684 84.3804 846.601 84.1704 830.215C85.2204 832.314 85.2204 832.293 86.7904 834.033C86.4404 815.227 86.2404 796.605 84.4904 777.855C84.1404 774.103 82.8704 766.844 83.4104 763.526L86.3004 770.481C86.7404 767.598 87.1504 764.91 87.0204 762L85.7504 762.274C77.5314 761.604 72.8664 760.689 64.8644 762.645C62.7104 761.958 62.8334 761.974 60.8394 760.964L61.4454 758.683C60.2764 754.908 57.9254 745.583 57.9534 741.714C58.4314 690.967 57.6784 640.139 57.9764 589.388C58.0694 573.612 61.2974 557.158 59.9674 540.877C59.5984 536.354 59.8294 525.674 60.7414 521.478L62.9894 520.263C72.8024 523.664 81.2004 520.626 92.3604 521.452L94.3904 520.944L93.6504 519.744L85.4604 518.315C88.3804 517.761 88.8304 518.346 91.1804 516.189L90.4104 514.922Z" fill="#E8E8E8"/>
<path d="M62.9894 520.262C72.8024 523.663 81.2004 520.624 92.3604 521.45C89.6804 521.776 88.6304 521.824 86.0204 522.618C84.6604 527.415 86.3204 531.254 84.6104 533.181L84.4104 531.644C84.0304 528.769 83.2804 525.808 82.6204 522.977L81.6304 522.459C83.6604 539.041 85.4104 559.642 87.0304 576.483L84.6004 577.465L93.5504 578.315L92.8504 579.375C89.7704 579.774 86.7704 580.13 83.7104 580.695C83.8404 587.395 84.2304 595.292 83.4904 601.83C83.3104 592.44 83.0604 590.284 80.9204 581.161C79.6704 602.367 86.0104 632.247 85.0104 654.893C81.8904 649.705 81.1704 609.26 79.4204 605.873C79.2604 618.713 87.3304 701.355 84.3504 704.703C82.8304 695.322 82.4004 682.117 80.3804 672.157C79.6904 668.752 80.6804 664.821 79.5804 660.811C76.4464 666.866 83.2904 704.123 83.9904 712.433C85.5004 730.588 82.8004 743.208 87.8204 761.136L88.7804 761.449L87.0204 761.999L85.7504 762.273C77.5314 761.603 72.8664 760.688 64.8644 762.643C62.7104 761.956 62.8334 761.972 60.8394 760.963L61.4454 758.682C60.2764 754.907 57.9254 745.581 57.9534 741.713C58.4314 690.965 57.6784 640.137 57.9764 589.387C58.0694 573.611 61.2974 557.156 59.9674 540.876C59.5984 536.352 59.8294 525.672 60.7414 521.477L62.9894 520.262Z" fill="#B2B2B2"/>
<path d="M137.88 520.836C138.93 520.962 141.82 520.837 142.08 521.962C144.61 533.076 142.08 545.811 142.86 557.767C146.86 618.764 144.31 680.179 144.72 741.307C144.77 748.972 142.97 754.279 142.22 761.413L140.83 762.465C137.76 761.724 138.18 761.991 134.92 762.316C127.92 753.018 121.09 752.827 112.32 758.897C113.82 756.933 115.38 755.04 116.94 753.119C118.57 744.817 119.01 723.894 119.58 714.972C120.12 706.4 125.78 669.459 123.46 665.359L124.03 664.876L124.49 666.832L123.37 666.322C122.45 671.757 119.13 706.417 118.26 708.03C115.59 703.615 121.45 642.485 122.83 633.218C124.01 625.325 123.7 617.94 123.38 609.461L122.84 610.438C123.41 617.927 119.67 648.426 118.74 657.986L118.01 658.077C116.81 647.399 123.91 583.539 122.71 580.813C121.27 584.322 120.05 599.315 118.93 604.861C118.36 595.898 120.76 586.172 118.83 581.64C115.11 579.54 114.27 580.109 110.39 578.961L116.15 578.568C119.38 563.507 119.01 540.88 121.71 523.732L120.79 524.709L121.46 523.398C117.65 531.492 118.83 530.957 118.41 539.18C117.06 530.126 117.51 531.126 118.48 522.378C115.35 522.286 113.68 521.943 110.65 521.398C116.45 520.965 134.65 521.538 137.88 520.836Z" fill="#B2B2B2"/>
<path d="M20.8466 1612.95C15.9096 1612.6 13.1966 1613.05 9.64661 1610.08C8.28861 1604.97 8.80963 1582.89 8.80963 1576.52L8.83264 1504.6L8.48163 1348.81C7.93763 1294.69 7.24965 1240.48 8.57965 1186.34C8.75865 1179.03 20.6026 1141.22 26.8066 1139.29C35.1426 1141.88 31.4066 1148.43 38.4276 1153.1C38.3346 1155.02 36.0836 1161.67 35.4156 1164.67C30.5816 1175.98 29.5006 1178.18 29.4706 1190.62C29.2396 1284.08 29.8286 1377.57 29.4876 1471.03L29.4716 1566.58C29.4656 1574.12 28.9557 1605.34 29.9987 1611.62C31.9337 1619.4 27.5866 1627.56 33.5956 1632.65C36.1796 1632.62 35.2767 1632.81 37.7277 1631.78L38.1677 1632.97L39.3016 1633.2C45.6076 1624.8 43.5117 1621.13 44.5327 1610.89L48.9216 1614.79C51.8696 1613.73 51.3216 1612.93 53.1986 1611.76C50.1696 1630.13 57.5196 1639.01 56.2516 1648.87L56.5746 1653.41C56.8336 1656.71 56.9367 1656.97 55.7357 1660.22C52.0237 1662.82 47.5756 1661.23 42.6766 1660.99L47.9816 1775.54C48.3646 1783.81 50.5637 1819.84 49.5557 1826.41C47.5037 1827.61 46.9786 1830.01 46.4556 1832.2C43.4876 1832.65 43.6906 1832.56 40.9226 1831.29C33.6926 1821.62 23.3016 1829.49 12.6926 1825.64C10.5146 1809.18 10.7876 1788.43 9.59161 1771.51C6.73161 1731.06 6.32663 1689.43 3.47363 1649.08C9.11463 1649.15 25.1176 1650.06 29.1726 1647.6C32.1316 1640.78 30.4136 1636.91 28.9216 1629.53C26.4116 1628.89 25.7837 1628.78 23.2097 1628.58C19.1407 1632.15 20.6117 1633.51 16.1807 1637.79C19.0017 1627.19 19.9686 1623.92 20.8466 1612.95Z" fill="#9C9C9C"/>
<path d="M29.9987 1611.62C25.5857 1612.28 24.0626 1612.25 20.1926 1610.28C19.7216 1609.56 19.2507 1608.83 18.7797 1608.12C18.1527 1573.01 18.4517 1517.28 18.4777 1483.59C20.4457 1482.08 19.5267 1482.92 21.2277 1481.06C20.4637 1480.54 18.4766 1479.38 18.4766 1478.48C18.4926 1439.49 18.5646 1399.38 18.3316 1360.51C18.2776 1351.4 19.6147 1333.69 18.6687 1329.15L16.6847 1328.87C15.9437 1327.24 16.5717 1293.37 16.5717 1288.62L16.5686 1210.27C16.6746 1195.28 14.9766 1182.19 20.0786 1168.15C22.8306 1160.58 20.9526 1149.24 26.3626 1142.11L27.6746 1142.12C30.8826 1145.71 33.9957 1159.27 35.4157 1164.67C30.5817 1175.98 29.5007 1178.18 29.4707 1190.62C29.2397 1284.09 29.8286 1377.57 29.4876 1471.03L29.4716 1566.58C29.4656 1574.13 28.9557 1605.34 29.9987 1611.62Z" fill="#E8E8E8"/>
<path d="M46.288 1629.16C48.481 1629.72 47.6949 1629.43 49.5999 1630.81C50.9439 1640.61 52.993 1645.11 50.856 1655.24C48.195 1658.03 48.756 1657.16 44.182 1658.03C39.794 1656.79 39.5859 1657.21 37.1229 1654.17C35.8449 1647.19 42.937 1638.03 46.288 1629.16Z" fill="#E8E8E8"/>
<path d="M112.32 758.899C121.09 752.829 127.92 753.02 134.92 762.318C138.18 761.993 137.76 761.726 140.83 762.467C142.35 767.72 141.19 817.648 141.22 827.031C141.59 860.709 141.7 894.389 141.57 928.069C141.57 940.688 142.27 965.365 141.15 977.23C137.12 978.378 129.07 979.588 125.15 978.264C124.41 973.237 125.48 975.299 121.82 971.854L120.81 972.506L121.01 971.25L120.12 971.757L120.8 972.398L123.65 972.004C126.97 962.656 125.02 832.862 124.57 813.559L123.07 813.355C118.8 812.748 119.28 813.295 117.15 810.782L116.32 810.808L113.35 808.395C110.87 802.592 111.57 766.452 112.32 758.899Z" fill="#B2B2B2"/>
<path d="M112.32 758.899C121.09 752.829 127.92 753.02 134.92 762.318C132.99 774.061 137.93 803.076 129.61 809.917C126.31 810.287 126.27 810.438 124.24 807.23C122.85 806.633 121.34 806.362 119.83 805.988L116.82 807.091C117.17 809.01 117.32 808.897 117.15 810.782L116.32 810.808L113.35 808.395C110.87 802.592 111.57 766.452 112.32 758.899Z" fill="#8B8B8B"/>
<path d="M119.07 760.843L124.42 760.129L130.08 761.046C131.82 764.708 131.2 799.398 130.69 805.077C128.86 807.16 127.73 806.64 124.24 807.229C122.85 806.632 121.34 806.361 119.83 805.987C119.48 795.983 120.75 769.297 119.07 760.843Z" fill="#E8E8E8"/>
<path d="M119.07 760.843L124.42 760.129C123.7 770.874 123.65 796.423 124.24 807.229C122.85 806.632 121.34 806.361 119.83 805.987C119.48 795.983 120.75 769.297 119.07 760.843Z" fill="#B2B2B2"/>
<path d="M116.82 807.091L115.31 805.647C113.93 800.42 113.78 766.661 115.79 761.428L119.07 760.844C120.75 769.298 119.48 795.984 119.83 805.989L116.82 807.091Z" fill="#E8E8E8"/>
<path d="M64.8642 762.645C72.8662 760.689 77.5312 761.604 85.7502 762.274C81.1302 762.817 78.6702 762.821 74.0002 762.727C73.9882 799.119 77.5412 840 76.8882 875.512L76.0912 875.769C74.0562 869.007 75.1192 862.674 74.1842 859.17C73.8502 887.675 73.7842 916.182 73.9842 944.689C74.0072 952.438 74.3282 965.173 74.8382 973.374C74.8522 973.599 72.6162 976.263 72.0682 976.709C70.0092 978.397 67.3111 979.04 64.7331 978.455C63.8861 978.256 63.0422 977.622 62.3232 977.143C60.5622 967.233 62.0231 766.908 63.5141 763.572L64.8642 762.645Z" fill="#B2B2B2"/>
<path d="M102.28 1194.6C113.62 1193.62 122.63 1194.26 133.93 1195.46L133.86 1340.21C133.87 1363.99 133.06 1393.81 134.19 1417.22L133.39 1417.36C125.72 1389.31 133.48 1341.08 128.61 1308.54C130.94 1307.91 130.01 1308.44 131.53 1307.2L125.36 1306.45C126.68 1305.01 126.07 1305.82 127.15 1304.01C123.95 1301.4 122.28 1303 118.21 1301.24C120.86 1301.05 120.72 1301.17 122.79 1299.5C124.47 1293.38 124.08 1206.89 123.21 1196.83C120.69 1194.65 120.8 1195.42 116.5 1195.34C110.67 1195.42 108.22 1195.37 102.28 1194.6Z" fill="#B2B2B2"/>
<path d="M69.0815 1195.46C80.2695 1194.26 89.8795 1193.61 101.12 1194.61C95.4795 1195.27 92.7895 1195.42 87.1195 1195.3C82.8695 1195.5 82.5195 1194.78 79.6695 1196.86C78.9195 1228.87 78.9896 1266.52 79.5796 1298.62C81.6496 1300.58 80.7596 1299.87 83.8996 1300.59L84.4395 1301.64C79.7395 1304.15 77.7825 1300.56 76.0215 1306.56C72.8245 1307.18 72.3756 1307.07 69.2126 1306.97C68.5046 1270.45 69.0795 1232.12 69.0815 1195.46Z" fill="#B2B2B2"/>
<path d="M95.5 964.332C98.76 969.298 98.53 967.427 98.4 972.571C103.73 972.512 112.56 971.496 116.33 974.822L116.31 976.878C113.8 978.91 89.74 979.677 87.04 977.683C86.4 974.405 86.15 975.903 87.75 973.03C90.21 972.507 90.4 972.413 92.89 972.484L91.28 970.091C91.78 967.971 92.02 966.841 92.73 964.782L95.5 964.332Z" fill="#E8E8E8"/>
<path d="M64.5099 1077.91C70.2059 1077.69 75.2879 1077.81 80.9799 1077.94H122.11C127.65 1077.82 132.94 1077.67 138.49 1077.85C138.53 1096.25 141.75 1174.46 132.28 1184.31C125.89 1186.73 115.84 1186.15 108.92 1185.55C104.4 1185.85 98.7599 1185.61 94.1499 1185.55C87.1999 1186.15 77.1299 1186.74 70.7209 1184.31C61.2479 1174.46 64.4699 1096.3 64.5099 1077.91Z" fill="#E8E8E8"/>
<path d="M122.11 1077.94C127.65 1077.82 132.94 1077.67 138.49 1077.85C138.53 1096.25 141.75 1174.46 132.28 1184.31C125.89 1186.73 115.84 1186.15 108.92 1185.55C112.67 1184.78 117.86 1184.34 121.78 1183.88L122.11 1077.94Z" fill="#B2B2B2"/>
<path d="M64.5099 1077.91C70.2059 1077.69 75.2879 1077.8 80.9799 1077.94C80.9099 1113.26 81.0199 1148.59 81.2999 1183.91C85.2199 1184.36 90.3999 1184.78 94.1499 1185.54C87.1999 1186.15 77.1299 1186.74 70.7209 1184.31C61.2479 1174.46 64.4699 1096.29 64.5099 1077.91Z" fill="#B2B2B2"/>
<path d="M87.5896 979.814C94.7496 979.729 110.89 978.838 116.64 981.586C116.69 981.76 117.14 983.354 117.16 984.165C117.78 1012.41 117.9 1041.32 117.05 1069.54C116.5 1070.19 115.96 1070.84 115.41 1071.48L85.5096 1071.59C85.4796 1049.25 84.9696 1006.46 85.9096 981.783C86.4696 981.127 87.0296 980.471 87.5896 979.814Z" fill="#E8E8E8"/>
<path d="M124.96 978.732C129.97 978.45 134.65 978.8 139.24 981.037C140.97 1009.28 138.77 1040.38 139.08 1068.8C139.08 1069.12 134.81 1073.47 134.75 1074.26C134.6 1076.11 130.61 1076.35 129.15 1076.69C124.85 1076.77 121.51 1077.06 117.28 1076.17L117.59 1075.22C120.73 1075.25 122.37 1075.61 125.27 1074.65C122.9 1073.1 122.85 1073.54 121.47 1071.41L124.21 1069.17C125.84 1065.2 124.97 989.35 124.96 978.732Z" fill="#B2B2B2"/>
<path d="M69.6303 979.754C71.6223 979.687 71.0833 979.761 73.0993 980.461C74.5173 983.189 74.2543 1062.74 74.1393 1072.42C70.7773 1075.54 70.6503 1075.85 66.3493 1076.57L66.1454 1074.04L68.2743 1071.71C66.1413 1070.8 65.6533 1070.55 63.6953 1069.3C62.9433 1063.16 63.2904 983.274 64.1194 980.728C65.6694 980.538 66.6023 980.385 68.1653 980.064L69.6303 979.754Z" fill="#B2B2B2"/>
<path d="M152.69 905.953C155.28 906.745 155.34 906.569 157.34 908.348C157.4 909.046 157.59 910.836 157.56 911.961C157.25 929.251 158.31 947.512 157.02 964.638C155.29 966.502 153.86 968.047 152.72 969.278L152.47 970.514C154.38 961.562 152.33 918.535 152.69 905.953Z" fill="#E8E8E8"/>
<path d="M76.1855 1187.75C85.8995 1186.92 115.12 1185.83 125.39 1188.52C126.55 1188.83 126.48 1190.59 126.82 1192.28C116.42 1192.99 88.5596 1194.09 77.6146 1191.52C76.4456 1191.25 76.5345 1189.49 76.1855 1187.75Z" fill="#E8E8E8"/>
<path d="M51.5102 767.879C53.5892 768.328 54.1342 768.574 56.1222 769.386C58.8752 775.283 57.5652 799.705 57.4752 807.845C55.4642 807.302 54.0362 806.721 52.0872 805.967C50.7932 801.588 51.4462 774.074 51.5102 767.879Z" fill="#E8E8E8"/>
<path d="M153.49 768.359L155.71 769.089C159.11 773.038 157.6 800.049 157.51 807.411C154.75 807.141 155.87 807.775 153.93 805.832C152.65 797.541 153.38 777.82 153.49 768.359Z" fill="#E8E8E8"/>
<path d="M90.9103 41.4112C110.44 35.4766 118.25 43.8328 124 62.2842C128.08 75.3926 137.12 94.1346 139.77 106.899C142.75 114.757 158.81 158.198 159.19 163.343C160.68 184.015 159.86 216.567 159.87 238.136L159.92 307.23C159.93 323.336 160.85 354.142 153.76 368.524L152.55 368.995L149.42 366.848L144.73 367.381C143.88 370.564 145.49 377.974 145.19 381.316C143.37 401.414 149.45 506.93 143.98 518.439L142.69 518.871C141.51 519.28 138.94 520.185 137.88 520.84C134.65 521.542 116.45 520.969 110.65 521.402L107.55 520.256C108.21 517.991 115.44 521.079 119.8 517.377L117.85 518.707L118.12 516.642L112.8 516.204L113.73 515.698C112.16 514.375 92.2603 514.278 90.4103 514.922L91.1803 516.189C88.8303 518.346 88.3804 517.76 85.4604 518.315L93.6504 519.744L94.3903 520.944L92.3603 521.452C81.2003 520.626 72.8023 523.664 62.9893 520.263C60.0693 518.276 54.1594 519.33 50.5304 519.671C49.4224 516.314 50.9863 402.503 50.8073 386.966C50.5693 366.282 42.2573 351.785 41.6543 335.331C41.0633 319.206 41.3883 290.709 41.3943 273.973L41.6173 163.619C43.1833 179.788 42.4083 215.726 42.5403 233.233C42.5063 215.614 41.7073 179.812 43.4753 163.425C44.2373 156.362 60.8213 114.74 64.2133 105.899C70.2283 86.4701 77.4173 55.6487 90.9103 41.4112Z" fill="#E8E8E8"/>
<path d="M64.2133 105.898C64.8023 126.75 66.2563 142.46 59.3623 162.241L61.3003 162.208C68.2993 162.12 71.1313 162.255 78.5503 161.31C83.3703 166.825 86.2404 163.711 93.0304 163.386C90.7404 169.62 90.2303 187.803 89.7603 195.152C87.8103 226.088 86.3703 257.055 85.4503 288.042C84.9603 303.91 86.4703 332.366 80.5003 345.607C81.4903 350.758 82.5404 362.357 83.6504 365.631C92.3404 367.24 98.3903 364.661 106.94 365.759C104.3 367.059 102.65 367.083 99.7203 367.623L95.6003 367.449C92.6603 368.124 89.6503 368.022 87.9803 370.952C85.1603 375.914 85.1303 498.146 84.9403 514.13L90.4103 514.921L91.1803 516.188C88.8303 518.344 88.3804 517.759 85.4604 518.314L93.6504 519.743L94.3903 520.943L92.3603 521.451C81.2003 520.624 72.8023 523.663 62.9893 520.262C60.0693 518.275 54.1594 519.329 50.5304 519.67C49.4224 516.313 50.9863 402.502 50.8073 386.965C50.5693 366.281 42.2573 351.784 41.6543 335.33C41.0633 319.204 41.3883 290.708 41.3943 273.972L41.6173 163.618C43.1833 179.787 42.4083 215.725 42.5403 233.232C42.5063 215.613 41.7073 179.811 43.4753 163.424C44.2373 156.361 60.8213 114.739 64.2133 105.898Z" fill="#B6B6B6"/>
<path d="M59.3621 162.244L61.3001 162.211C68.2991 162.122 71.1311 162.258 78.5501 161.312C83.3701 166.827 86.2401 163.714 93.0301 163.388C90.7401 169.623 90.2301 187.806 89.7601 195.154C87.8101 226.09 86.3701 257.058 85.4501 288.045C84.9601 303.913 86.4701 332.368 80.5001 345.609C81.4901 350.761 82.5401 362.36 83.6501 365.633C92.3401 367.242 98.39 364.663 106.94 365.762C104.3 367.062 102.65 367.085 99.72 367.625L95.6 367.452C89.25 367.442 66.8921 366.884 62.1821 364.555C54.0691 351.911 56.7901 314.239 56.6831 298.208L56.5781 177.981C56.5321 171.268 55.2471 166.506 59.3621 162.244Z" fill="#B9B9B9"/>
<path d="M139.56 365.228C146.52 342.963 144.81 321.968 145.7 298.359C147.49 300.532 149.71 360.093 149.42 366.845L144.73 367.378C143.88 370.562 145.49 377.972 145.19 381.314C143.37 401.411 149.45 506.928 143.98 518.437L142.69 518.869C141.51 519.277 138.94 520.183 137.88 520.838C134.65 521.54 116.45 520.966 110.65 521.399L107.55 520.254C108.21 517.989 115.44 521.076 119.8 517.374L117.85 518.705L118.12 516.64L112.8 516.202L113.73 515.696C112.16 514.372 92.2604 514.275 90.4104 514.919L84.9404 514.128C85.1304 498.145 85.1604 375.912 87.9804 370.951C89.6504 368.021 92.6604 368.123 95.6004 367.448L99.7204 367.621C105.29 368.9 110.21 369.735 115.81 368.04C121.35 367.135 125.08 366.389 130.74 366.34C135 366.387 135.39 366.317 139.56 365.228Z" fill="#D5D5D5"/>
<path d="M139.56 365.228C146.52 342.963 144.81 321.968 145.7 298.359C147.49 300.532 149.71 360.093 149.42 366.845L144.73 367.378C143.88 370.562 145.49 377.972 145.19 381.314C143.37 401.411 149.45 506.928 143.98 518.437L142.69 518.869C141.51 519.277 138.94 520.183 137.88 520.838C134.65 521.54 116.45 520.966 110.65 521.399L107.55 520.254C108.21 517.989 115.44 521.076 119.8 517.374L117.85 518.705L118.12 516.64L112.8 516.202L113.73 515.696C122.3 516.553 125.21 515.441 133.5 513.083C133.73 495.965 134.94 376.237 130.82 368.827L126.72 368.174L130.74 366.34C135 366.387 135.39 366.317 139.56 365.228Z" fill="#A6A6A6"/>
<path d="M90.9103 41.4112C110.44 35.4766 118.25 43.8328 124 62.2842C128.08 75.3926 137.12 94.1346 139.77 106.899C139.42 120.045 139.35 133.298 139.53 146.466C139.6 151.892 143.21 157.094 142.66 161.935C137.17 164.494 130.43 162.348 124.33 161.185L122.13 164.677C114.74 165.448 105.39 162.25 93.0303 163.387C86.2403 163.712 83.3703 166.826 78.5503 161.311C71.1313 162.256 68.2993 162.121 61.3003 162.209L59.3623 162.242C66.2563 142.461 64.8023 126.751 64.2133 105.899C70.2283 86.4701 77.4173 55.6487 90.9103 41.4112Z" fill="#9C9C9C"/>
<path d="M78.5498 161.308C101.77 159.689 101.79 160.341 124.33 161.183L122.13 164.675C114.74 165.446 105.39 162.248 93.0298 163.384C86.2398 163.71 83.3698 166.823 78.5498 161.308Z" fill="#C5C5C5"/>
<path d="M139.771 106.898C142.751 114.756 158.81 158.197 159.19 163.342C160.68 184.014 159.86 216.567 159.87 238.135L159.921 307.229C159.931 323.335 160.85 354.141 153.76 368.524L152.551 368.994L149.421 366.847C149.711 360.095 147.49 300.534 145.7 298.361C144.81 321.97 146.521 342.965 139.561 365.23C135.391 366.318 135 366.389 130.74 366.342C125.08 366.391 121.351 367.137 115.811 368.042C119.231 366.556 119.41 366.719 121.96 363.771C122.28 359.817 122.02 357.271 124.44 354.782L128.26 355.848C129.27 348.932 126.11 313.907 125.84 304.917L123.19 200.47C122.83 190.043 123.01 174.29 122.13 164.677L124.33 161.185C130.43 162.348 137.171 164.493 142.661 161.934C143.211 157.093 139.601 151.891 139.531 146.465C139.351 133.298 139.421 120.044 139.771 106.898Z" fill="#B0B0B0"/>
<path d="M16.1807 1637.79C20.6117 1633.51 19.1407 1632.15 23.2097 1628.58C25.7837 1628.78 26.4117 1628.89 28.9217 1629.53C30.4137 1636.91 32.1316 1640.78 29.1726 1647.6C25.1176 1650.06 9.11466 1649.15 3.47366 1649.08C6.32666 1689.43 6.73164 1731.06 9.59164 1771.52C10.7876 1788.43 10.5147 1809.18 12.6927 1825.64C23.3017 1829.49 33.6926 1821.62 40.9226 1831.29C43.6906 1832.56 43.4877 1832.65 46.4557 1832.2C46.9787 1830.01 47.5037 1827.61 49.5557 1826.41C66.0337 1826.75 82.5197 1826.84 98.9997 1826.66L98.9796 2053.83L74.5047 2053.82L-26.9264 2053.97L-54.6374 2054.05C-55.9074 2014.45 -54.7573 1966.65 -54.7723 1926.58L-55.0594 1646.66L-27.2243 1646.29C-17.0833 1646.41 9.44369 1646.64 16.1807 1637.79Z" fill="#B2B2B2"/>
<path d="M29.1725 1647.6C24.9965 1646.87 22.3706 1647.24 19.9726 1644.6C19.4806 1638.58 23.5916 1632.09 28.9216 1629.53C30.4136 1636.91 32.1315 1640.78 29.1725 1647.6Z" fill="#E8E8E8"/>
<path d="M155.06 1140.42C161.09 1145.47 158.78 1149.23 164.12 1152.5C171.18 1150.85 168.9 1142.67 174 1138.4C180.97 1139.01 184.37 1153.24 186.43 1159.28C188.99 1166.8 193.54 1177.17 193.8 1184.78C194.7 1210.84 194.17 1237.17 194.07 1263.27L194.18 1394.83C194.22 1420.9 193.56 1451.77 194.93 1477.28L195.34 1468.78C195.25 1474.69 194.88 1496.23 194.37 1501.73C192.97 1516.74 196.83 1605.01 192.36 1612.06C190.01 1612.84 185.42 1613.67 184.58 1616.18C181.13 1626.46 186.31 1641.8 195.93 1646.52C180.08 1649.02 144.1 1643.68 132.87 1646.73C135.4 1641.8 125.03 1628.85 128.22 1617.02C124.69 1616.69 125.56 1617.34 123.06 1615.56C120.97 1616.81 148.34 1612.11 149.52 1611.88C152.56 1615.32 152.18 1617.11 151.94 1622.2C151.89 1623.29 151.82 1624.38 151.75 1625.46H152.88C159.56 1617.2 152.34 1617.61 158.16 1612.28C161.28 1612.57 162.84 1611.26 165.72 1609.6C169.05 1602.52 167.53 1583.96 167.45 1575.25C167.11 1534.34 167.31 1493.92 168.4 1453.06C169.7 1404.44 167.5 1355.38 168.45 1306.7C169.18 1268.81 168.54 1230.08 167.51 1192.21C167.41 1188.89 168.66 1184.4 168.29 1180.95C164.25 1168.32 161.58 1151.3 153.69 1140.7L155.06 1140.42ZM179.72 1305.62C180.05 1299.88 179.9 1292.94 179.82 1287.17C179.46 1260.05 180.07 1232.58 178.96 1205.52C179.39 1197.14 178.79 1187.26 178.49 1178.76C174.9 1175.13 174.59 1174.98 172.65 1170.35C170.72 1167.93 170.47 1167.66 168.13 1165.66C170.58 1172.62 168.14 1171.41 173.38 1177.41C174.74 1184.07 174.13 1225.33 174.11 1234.12L173.96 1416.3C173.99 1435.1 173.71 1457.8 174.49 1476.92C174.55 1478.37 176.02 1479.16 177.06 1479.86C172.28 1485.65 174.03 1505.19 174.07 1513.56L174.34 1573.67C174.41 1591.17 175.83 1615.74 171.41 1631.95C169.1 1636.25 168.35 1638.09 169.47 1642.51C173.97 1647.22 178.23 1646.09 184.13 1645.72C181.55 1640.8 179.71 1637.26 177.62 1632.02C179.37 1614.39 183.3 1489.11 178.3 1479.56C181.38 1475.63 180.2 1428.09 180.2 1420.13L179.72 1305.62ZM140.22 1643.32C143.32 1635.93 149.61 1625.26 147.15 1618.46C144.21 1616.02 142.68 1616.24 138.42 1616.23C136.18 1617.65 135.06 1617.67 134.72 1620.16C133.62 1628.24 133.95 1635.81 137.09 1643.21C139.35 1644.03 138.31 1644.11 140.22 1643.32Z" fill="#9C9C9C" fill-opacity="0.901961"/>
<path d="M169.32 1157.36C170.32 1152.8 171.62 1144.33 175.03 1141.48C180.18 1143.36 186.79 1179.11 187.05 1185.96C187.84 1206.23 187.56 1227.25 187.55 1247.56L187.47 1328.64L184.62 1329.89C185.34 1332.69 187.44 1332.15 187.42 1332.95C186.16 1421.55 186.41 1510.15 186.63 1598.77C186.65 1609.53 181.12 1615.44 181.99 1626.95L181.25 1626.81L181.36 1293.11L180.76 1211.3C180.69 1205.69 181.47 1181.92 178.49 1178.77C174.9 1175.13 174.59 1174.98 172.65 1170.35L169.32 1157.36Z" fill="#E8E8E8"/>
<path d="M177.06 1479.86C176.02 1479.16 174.55 1478.37 174.49 1476.92C173.71 1457.8 173.99 1435.1 173.96 1416.3L174.11 1234.12C174.13 1225.33 174.74 1184.07 173.38 1177.41C168.14 1171.41 170.58 1172.62 168.13 1165.66C170.47 1167.66 170.72 1167.93 172.65 1170.35C174.59 1174.98 174.9 1175.13 178.49 1178.76C178.79 1187.26 179.39 1197.14 178.96 1205.52C177.6 1203.09 177.78 1195.9 176.48 1191.52L176.18 1193.39L177.06 1194.04L176.11 1195.14C176.03 1207.59 176.68 1301.62 179.72 1305.62L180.2 1420.13C180.2 1428.08 181.38 1475.63 178.3 1479.56L177.06 1479.86Z" fill="#E8E8E8" fill-opacity="0.0235294"/>
<path d="M177.06 1479.86L178.3 1479.56C183.3 1489.12 179.37 1614.39 177.62 1632.02C176.38 1629.65 176.18 1629.33 175.72 1626.76L175.41 1624.91C174.53 1627.61 172.98 1629.58 171.41 1631.95C175.83 1615.75 174.41 1591.17 174.34 1573.67L174.07 1513.56C174.03 1505.2 172.28 1485.65 177.06 1479.86Z" fill="#E8E8E8" fill-opacity="0.0509804"/>
<path d="M179.72 1305.62C176.68 1301.62 176.03 1207.59 176.11 1195.14L177.06 1194.04L176.18 1193.38L176.48 1191.52C177.78 1195.9 177.6 1203.08 178.96 1205.51C180.07 1232.58 179.46 1260.05 179.82 1287.17C179.9 1292.94 180.05 1299.88 179.72 1305.62Z" fill="#E8E8E8" fill-opacity="0.0470588"/>
<path d="M171.41 1631.95C172.98 1629.58 174.53 1627.61 175.41 1624.9L175.72 1626.76C176.18 1629.32 176.38 1629.65 177.62 1632.02C179.71 1637.26 181.55 1640.8 184.13 1645.72C178.23 1646.09 173.97 1647.22 169.47 1642.51C168.35 1638.08 169.1 1636.25 171.41 1631.95Z" fill="#E8E8E8" fill-opacity="0.0117647"/>
</g>
</mask>
<g mask="url(#mask0_473_1643)">
<path d="M0 942.307V33.6523H196.037V942.307H0Z" fill="#FF6060"/>
<path d="M0 1461.39V942.309H191.074V1461.39H0Z" fill="#5D8FFF"/>
<path d="M0 1612.39V1461.39H191.074V1612.39H0Z" fill="#FFD24C"/>
<path d="M0 1649.04V1642.04H191.074V1649.04H0Z" fill="#59FFF7"/>
<path d="M0 1627.3V1612H191.074V1627.3H0Z" fill="#77FF55"/>
<path d="M0 1642.3V1627H191.074V1642.3H0Z" fill="#8B0E85"/>
</g>
<defs>
<clipPath id="clip0_473_1643">
<rect width="201" height="1649" fill="white"/>
</clipPath>
</defs>
</svg>
