{
  "accessors": [
    {
      "bufferView": 2,
      "componentType": 5126,
      "count": 8967,
      "max": [
        15.096424102783203,
        12.658556938171387,
        248.80943298339844
      ],
      "min": [
        -15.096424102783203,
        -12.629344940185547,
        -5.6643524169921875
      ],
      "type": "VEC3"
    },
    {
      "bufferView": 2,
      "byteOffset": 107604,
      "componentType": 5126,
      "count": 8967,
      "max": [
        1.0,
        1.0,
        1.0
      ],
      "min": [
        -1.0,
        -1.0,
        -1.0
      ],
      "type": "VEC3"
    },
    {
      "bufferView": 3,
      "componentType": 5126,
      "count": 8967,
      "max": [
        1.0,
        1.0,
        1.0,
        1.0
      ],
      "min": [
        -1.0,
        -1.0,
        -0.9994237422943115,
        -1.0
      ],
      "type": "VEC4"
    },
    {
      "bufferView": 1,
      "componentType": 5126,
      "count": 8967,
      "max": [
        0.9967377185821533,
        0.9979999661445618
      ],
      "min": [
        0.0020000000949949026,
        0.0020000000949949026
      ],
      "type": "VEC2"
    },
    {
      "bufferView": 0,
      "componentType": 5125,
      "count": 32556,
      "type": "SCALAR"
    },
    {
      "bufferView": 2,
      "byteOffset": 215208,
      "componentType": 5126,
      "count": 112,
      "max": [
        8.158923149108887,
        13.209685325622559,
        13.209685325622559
      ],
      "min": [
        -2.045281410217285,
        -13.686712265014648,
        -13.209685325622559
      ],
      "type": "VEC3"
    },
    {
      "bufferView": 2,
      "byteOffset": 216552,
      "componentType": 5126,
      "count": 112,
      "max": [
        0.1665029525756836,
        0.8970049619674683,
        1.0
      ],
      "min": [
        -0.2899549901485443,
        -1.0,
        -0.9847816824913025
      ],
      "type": "VEC3"
    },
    {
      "bufferView": 3,
      "byteOffset": 143472,
      "componentType": 5126,
      "count": 112,
      "max": [
        1.0,
        0.1612841784954071,
        0.044373590499162674,
        1.0
      ],
      "min": [
        0.947727620601654,
        -0.28713345527648926,
        -0.2440119981765747,
        1.0
      ],
      "type": "VEC4"
    },
    {
      "bufferView": 1,
      "byteOffset": 71736,
      "componentType": 5126,
      "count": 112,
      "max": [
        1.0,
        1.0
      ],
      "min": [
        0.3799999952316284,
        0.0
      ],
      "type": "VEC2"
    },
    {
      "bufferView": 1,
      "byteOffset": 72632,
      "componentType": 5126,
      "count": 112,
      "max": [
        1.0,
        1.0
      ],
      "min": [
        0.3799999952316284,
        0.0
      ],
      "type": "VEC2"
    },
    {
      "bufferView": 0,
      "byteOffset": 130224,
      "componentType": 5125,
      "count": 168,
      "type": "SCALAR"
    }
  ],
  "asset": {
    "extras": {
      "author": "Neel3Dartist (https://sketchfab.com/Neel91)",
      "license": "CC-BY-4.0 (http://creativecommons.org/licenses/by/4.0/)",
      "source": "https://sketchfab.com/3d-models/pslv-c40-c7066310704040a9bf0c86d7d21ab94f",
      "title": "PSLV C40"
    },
    "generator": "Sketchfab-12.68.0",
    "version": "2.0"
  },
  "bufferViews": [
    {
      "buffer": 0,
      "byteLength": 130896,
      "name": "floatBufferViews",
      "target": 34963
    },
    {
      "buffer": 0,
      "byteLength": 73528,
      "byteOffset": 130896,
      "byteStride": 8,
      "name": "floatBufferViews",
      "target": 34962
    },
    {
      "buffer": 0,
      "byteLength": 217896,
      "byteOffset": 204424,
      "byteStride": 12,
      "name": "floatBufferViews",
      "target": 34962
    },
    {
      "buffer": 0,
      "byteLength": 145264,
      "byteOffset": 422320,
      "byteStride": 16,
      "name": "floatBufferViews",
      "target": 34962
    }
  ],
  "buffers": [
    {
      "byteLength": 567584,
      "uri": "scene.bin"
    }
  ],
  "images": [
    {
      "uri": "textures/PSLV-C40_baseColor.png"
    },
    {
      "uri": "textures/PSLV-C40_metallicRoughness.png"
    },
    {
      "uri": "textures/PSLV-C40_normal.png"
    },
    {
      "uri": "textures/material_baseColor.png"
    }
  ],
  "materials": [
    {
      "doubleSided": true,
      "name": "PSLV-C40",
      "normalTexture": {
        "index": 2
      },
      "pbrMetallicRoughness": {
        "baseColorTexture": {
          "index": 0
        },
        "metallicFactor": 0.0,
        "metallicRoughnessTexture": {
          "index": 1
        }
      }
    },
    {
      "alphaMode": "BLEND",
      "doubleSided": true,
      "name": "material",
      "normalTexture": {
        "index": 2
      },
      "pbrMetallicRoughness": {
        "baseColorTexture": {
          "index": 3
        },
        "metallicFactor": 0.0,
        "metallicRoughnessTexture": {
          "index": 1
        }
      }
    }
  ],
  "meshes": [
    {
      "name": "main Pslv_PSLV-C40_0",
      "primitives": [
        {
          "attributes": {
            "NORMAL": 1,
            "POSITION": 0,
            "TANGENT": 2,
            "TEXCOORD_0": 3
          },
          "indices": 4,
          "material": 0,
          "mode": 4
        }
      ]
    },
    {
      "name": "Plane001_f1_0",
      "primitives": [
        {
          "attributes": {
            "NORMAL": 6,
            "POSITION": 5,
            "TANGENT": 7,
            "TEXCOORD_0": 8,
            "TEXCOORD_1": 9
          },
          "indices": 10,
          "material": 1,
          "mode": 4
        }
      ]
    }
  ],
  "nodes": [
    {
      "children": [
        1
      ],
      "matrix": [
        1.0,
        0.0,
        0.0,
        0.0,
        0.0,
        2.220446049250313e-16,
        -1.0,
        0.0,
        0.0,
        1.0,
        2.220446049250313e-16,
        0.0,
        0.0,
        0.0,
        0.0,
        1.0
      ],
      "name": "Sketchfab_model"
    },
    {
      "children": [
        2
      ],
      "matrix": [
        1.0,
        0.0,
        0.0,
        0.0,
        0.0,
        0.0,
        1.0,
        0.0,
        0.0,
        -1.0,
        0.0,
        0.0,
        0.0,
        0.0,
        0.0,
        1.0
      ],
      "name": "PSLV C40.FBX"
    },
    {
      "children": [
        3,
        5
      ],
      "name": "RootNode"
    },
    {
      "children": [
        4
      ],
      "matrix": [
        1.0,
        0.0,
        0.0,
        0.0,
        0.0,
        2.220446049250313e-16,
        -1.0,
        0.0,
        0.0,
        1.0,
        2.220446049250313e-16,
        0.0,
        2.384185791015625e-07,
        49.320472717285156,
        -3.7618663100147387e-06,
        1.0
      ],
      "name": "main Pslv"
    },
    {
      "mesh": 0,
      "name": "main Pslv_PSLV-C40_0"
    },
    {
      "children": [
        6
      ],
      "matrix": [
        4.759095306141206e-07,
        -6.3036127090453915,
        -3.859850566300358e-16,
        0.0,
        1.8610749244689295,
        1.4050725109916782e-07,
        4.6960067836795963e-07,
        0.0,
        -4.6960067836795836e-07,
        -3.5567823647986845e-14,
        1.8610749244689349,
        0.0,
        0.359619140625,
        34.0679931640625,
        1.3557316833612276e-06,
        1.0
      ],
      "name": "Plane001"
    },
    {
      "mesh": 1,
      "name": "Plane001_f1_0"
    }
  ],
  "samplers": [
    {
      "magFilter": 9729,
      "minFilter": 9987,
      "wrapS": 10497,
      "wrapT": 10497
    }
  ],
  "scene": 0,
  "scenes": [
    {
      "name": "Sketchfab_Scene",
      "nodes": [
        0
      ]
    }
  ],
  "textures": [
    {
      "sampler": 0,
      "source": 0
    },
    {
      "sampler": 0,
      "source": 1
    },
    {
      "sampler": 0,
      "source": 2
    },
    {
      "sampler": 0,
      "source": 3
    }
  ]
}
